<mxfile host="app.diagrams.net" agent="Mozilla/5.0 (Windows NT 10.0; Win64; x64) AppleWebKit/537.36 (KHTML, like Gecko) Chrome/136.0.0.0 Safari/537.36" version="27.0.6">
  <diagram id="JauXoLcSwLwZnJPFhcp0" name="Page-1">
    <mxGraphModel dx="1042" dy="569" grid="1" gridSize="10" guides="1" tooltips="1" connect="1" arrows="1" fold="1" page="1" pageScale="1" pageWidth="827" pageHeight="1169" math="0" shadow="0">
      <root>
        <mxCell id="0" />
        <mxCell id="1" parent="0" />
        <mxCell id="JbE_TF4Sz4cnRFTBnEcp-9" value="slobodni&amp;nbsp;&lt;div&gt;termini&lt;/div&gt;" style="edgeStyle=orthogonalEdgeStyle;rounded=0;orthogonalLoop=1;jettySize=auto;html=1;entryX=0.5;entryY=0;entryDx=0;entryDy=0;exitX=1;exitY=0.5;exitDx=0;exitDy=0;" edge="1" parent="1" source="JbE_TF4Sz4cnRFTBnEcp-1" target="JbE_TF4Sz4cnRFTBnEcp-3">
          <mxGeometry relative="1" as="geometry">
            <mxPoint x="550" y="170" as="targetPoint" />
          </mxGeometry>
        </mxCell>
        <mxCell id="JbE_TF4Sz4cnRFTBnEcp-1" value="P2.1&lt;div&gt;Prikaz&lt;/div&gt;&lt;div&gt;dostupnih termina&lt;/div&gt;" style="ellipse;whiteSpace=wrap;html=1;" vertex="1" parent="1">
          <mxGeometry x="330" y="130" width="120" height="80" as="geometry" />
        </mxCell>
        <mxCell id="JbE_TF4Sz4cnRFTBnEcp-12" value="Spremi&amp;nbsp;&lt;div&gt;rezervaciju&lt;/div&gt;" style="edgeStyle=orthogonalEdgeStyle;rounded=0;orthogonalLoop=1;jettySize=auto;html=1;exitX=1;exitY=0.5;exitDx=0;exitDy=0;" edge="1" parent="1" source="JbE_TF4Sz4cnRFTBnEcp-2" target="JbE_TF4Sz4cnRFTBnEcp-3">
          <mxGeometry relative="1" as="geometry" />
        </mxCell>
        <mxCell id="JbE_TF4Sz4cnRFTBnEcp-2" value="P2.2&lt;div&gt;Odabir termina&lt;/div&gt;" style="ellipse;whiteSpace=wrap;html=1;" vertex="1" parent="1">
          <mxGeometry x="354" y="380" width="120" height="80" as="geometry" />
        </mxCell>
        <mxCell id="JbE_TF4Sz4cnRFTBnEcp-7" value="" style="edgeStyle=orthogonalEdgeStyle;rounded=0;orthogonalLoop=1;jettySize=auto;html=1;" edge="1" parent="1" source="JbE_TF4Sz4cnRFTBnEcp-3" target="JbE_TF4Sz4cnRFTBnEcp-4">
          <mxGeometry relative="1" as="geometry" />
        </mxCell>
        <mxCell id="JbE_TF4Sz4cnRFTBnEcp-3" value="P2.3&lt;div&gt;potvrda&amp;nbsp;&lt;/div&gt;&lt;div&gt;rezervacije&lt;/div&gt;" style="ellipse;whiteSpace=wrap;html=1;" vertex="1" parent="1">
          <mxGeometry x="450" y="260" width="120" height="80" as="geometry" />
        </mxCell>
        <mxCell id="JbE_TF4Sz4cnRFTBnEcp-4" value="Baza podataka" style="shape=cylinder3;whiteSpace=wrap;html=1;boundedLbl=1;backgroundOutline=1;size=15;" vertex="1" parent="1">
          <mxGeometry x="660" y="260" width="60" height="80" as="geometry" />
        </mxCell>
        <mxCell id="JbE_TF4Sz4cnRFTBnEcp-11" value="Slobodni&lt;div&gt;termini&lt;/div&gt;" style="edgeStyle=orthogonalEdgeStyle;rounded=0;orthogonalLoop=1;jettySize=auto;html=1;entryX=0;entryY=0.5;entryDx=0;entryDy=0;" edge="1" parent="1" source="JbE_TF4Sz4cnRFTBnEcp-5" target="JbE_TF4Sz4cnRFTBnEcp-1">
          <mxGeometry relative="1" as="geometry">
            <mxPoint x="170" y="190" as="targetPoint" />
          </mxGeometry>
        </mxCell>
        <mxCell id="JbE_TF4Sz4cnRFTBnEcp-5" value="Korisnik" style="rounded=0;whiteSpace=wrap;html=1;" vertex="1" parent="1">
          <mxGeometry x="110" y="270" width="120" height="60" as="geometry" />
        </mxCell>
        <mxCell id="JbE_TF4Sz4cnRFTBnEcp-14" value="Provjera&lt;div&gt;dostupnosti&lt;/div&gt;" style="endArrow=none;html=1;rounded=0;exitX=1;exitY=0.5;exitDx=0;exitDy=0;entryX=0.5;entryY=1;entryDx=0;entryDy=0;" edge="1" parent="1" source="JbE_TF4Sz4cnRFTBnEcp-5" target="JbE_TF4Sz4cnRFTBnEcp-1">
          <mxGeometry width="50" height="50" relative="1" as="geometry">
            <mxPoint x="390" y="370" as="sourcePoint" />
            <mxPoint x="440" y="320" as="targetPoint" />
            <Array as="points">
              <mxPoint x="390" y="300" />
            </Array>
          </mxGeometry>
        </mxCell>
        <mxCell id="JbE_TF4Sz4cnRFTBnEcp-15" value="Potvrda&amp;nbsp;&lt;div&gt;rezervacije&amp;nbsp;&lt;/div&gt;" style="endArrow=classic;html=1;rounded=0;exitX=1;exitY=0.5;exitDx=0;exitDy=0;entryX=0;entryY=0;entryDx=0;entryDy=0;" edge="1" parent="1" source="JbE_TF4Sz4cnRFTBnEcp-5" target="JbE_TF4Sz4cnRFTBnEcp-2">
          <mxGeometry width="50" height="50" relative="1" as="geometry">
            <mxPoint x="390" y="370" as="sourcePoint" />
            <mxPoint x="440" y="320" as="targetPoint" />
            <Array as="points">
              <mxPoint x="310" y="300" />
              <mxPoint x="310" y="390" />
            </Array>
          </mxGeometry>
        </mxCell>
      </root>
    </mxGraphModel>
  </diagram>
</mxfile>
